HIERARCHY
ROOT Hips
{
	OFFSET -14.64140 90.27770 -84.91600
	CHANNELS 6 Xposition Yposition Zposition Zrotation Xrotation Yrotation
	JOINT Spine
	{
		OFFSET 0.00000 13.20850 -1.60436
		CHANNELS 3 Zrotation Xrotation Yrotation
		JOINT Spine1
		{
			OFFSET 0.00000 8.61716 0.00000
			CHANNELS 3 Zrotation Xrotation Yrotation
			JOINT Spine2
			{
				OFFSET 0.00000 8.61717 0.00000
				CHANNELS 3 Zrotation Xrotation Yrotation
				JOINT Spine3
				{
					OFFSET 0.00000 8.61717 0.00000
					CHANNELS 3 Zrotation Xrotation Yrotation
					JOINT Neck
					{
						OFFSET 0.00000 11.07920 1.10792
						CHANNELS 3 Zrotation Xrotation Yrotation
						JOINT Neck1
						{
							OFFSET 0.00000 7.08032 0.00000
							CHANNELS 3 Zrotation Xrotation Yrotation
							JOINT Head
							{
								OFFSET 0.00000 7.08031 0.00000
								CHANNELS 3 Zrotation Xrotation Yrotation
								End site
								{
									OFFSET 0.00000 0.00000 0.00000
								}
							}
						}
					}
					JOINT RightShoulder
					{
						OFFSET -0.01000 7.91373 5.19711
						CHANNELS 3 Zrotation Xrotation Yrotation
						JOINT RightArm
						{
							OFFSET -18.41580 0.00000 0.00000
							CHANNELS 3 Zrotation Xrotation Yrotation
							JOINT RightForeArm
							{
								OFFSET -29.11090 0.00000 0.00000
								CHANNELS 3 Zrotation Xrotation Yrotation
								JOINT RightHand
								{
									OFFSET -24.65040 0.00000 0.00000
									CHANNELS 3 Zrotation Xrotation Yrotation
									JOINT RightHandThumb1
									{
										OFFSET -5.35114 -0.85590 3.97906
										CHANNELS 3 Zrotation Xrotation Yrotation
										JOINT RightHandThumb2
										{
											OFFSET -4.52789 0.00000 0.00000
											CHANNELS 3 Zrotation Xrotation Yrotation
											JOINT RightHandThumb3
											{
												OFFSET -2.46976 0.00000 0.00000
												CHANNELS 3 Zrotation Xrotation Yrotation
												End site
												{
													OFFSET 0.00000 0.00000 0.00000
												}
											}
										}
									}
									JOINT RightHandIndex1
									{
										OFFSET -14.26970 0.00000 2.88139
										CHANNELS 3 Zrotation Xrotation Yrotation
										JOINT RightHandIndex2
										{
											OFFSET -5.48836 0.00000 0.00000
											CHANNELS 3 Zrotation Xrotation Yrotation
											JOINT RightHandIndex3
											{
												OFFSET -3.01859 0.00000 0.00000
												CHANNELS 3 Zrotation Xrotation Yrotation
												End site
												{
													OFFSET 0.00000 0.00000 0.00000
												}
											}
										}
									}
									JOINT RightHandMiddle1
									{
										OFFSET -14.26970 0.00000 -0.09147
										CHANNELS 3 Zrotation Xrotation Yrotation
										JOINT RightHandMiddle2
										{
											OFFSET -6.17441 0.00000 0.00000
											CHANNELS 3 Zrotation Xrotation Yrotation
											JOINT RightHandMiddle3
											{
												OFFSET -3.56743 0.00000 0.00000
												CHANNELS 3 Zrotation Xrotation Yrotation
												End site
												{
													OFFSET 0.00000 0.00000 0.00000
												}
											}
										}
									}
									JOINT RightHandRing1
									{
										OFFSET -12.69180 0.00000 -3.06433
										CHANNELS 3 Zrotation Xrotation Yrotation
										JOINT RightHandRing2
										{
											OFFSET -5.62556 0.00000 0.00000
											CHANNELS 3 Zrotation Xrotation Yrotation
											JOINT RightHandRing3
											{
												OFFSET -3.56744 0.00000 0.00000
												CHANNELS 3 Zrotation Xrotation Yrotation
												End site
												{
													OFFSET 0.00000 0.00000 0.00000
												}
											}
										}
									}
									JOINT RightHandPinky1
									{
										OFFSET -11.11390 0.00000 -6.03719
										CHANNELS 3 Zrotation Xrotation Yrotation
										JOINT RightHandPinky2
										{
											OFFSET -4.52789 0.00000 0.00000
											CHANNELS 3 Zrotation Xrotation Yrotation
											JOINT RightHandPinky3
											{
												OFFSET -2.46976 0.00000 0.00000
												CHANNELS 3 Zrotation Xrotation Yrotation
												End site
												{
													OFFSET 0.00000 0.00000 0.00000
												}
											}
										}
									}
								}
							}
						}
					}
					JOINT LeftShoulder
					{
						OFFSET 0.01000 7.91373 5.19711
						CHANNELS 3 Zrotation Xrotation Yrotation
						JOINT LeftArm
						{
							OFFSET 18.41580 0.00000 0.00000
							CHANNELS 3 Zrotation Xrotation Yrotation
							JOINT LeftForeArm
							{
								OFFSET 29.11090 0.00000 0.00000
								CHANNELS 3 Zrotation Xrotation Yrotation
								JOINT LeftHand
								{
									OFFSET 24.65040 0.00000 0.00000
									CHANNELS 3 Zrotation Xrotation Yrotation
									JOINT LeftHandThumb1
									{
										OFFSET 5.35114 -0.85590 3.97906
										CHANNELS 3 Zrotation Xrotation Yrotation
										JOINT LeftHandThumb2
										{
											OFFSET 4.52789 0.00000 0.00000
											CHANNELS 3 Zrotation Xrotation Yrotation
											JOINT LeftHandThumb3
											{
												OFFSET 2.46977 0.00000 0.00000
												CHANNELS 3 Zrotation Xrotation Yrotation
												End site
												{
													OFFSET 0.00000 0.00000 0.00000
												}
											}
										}
									}
									JOINT LeftHandIndex1
									{
										OFFSET 14.26970 0.00000 2.88139
										CHANNELS 3 Zrotation Xrotation Yrotation
										JOINT LeftHandIndex2
										{
											OFFSET 5.48836 0.00000 0.00000
											CHANNELS 3 Zrotation Xrotation Yrotation
											JOINT LeftHandIndex3
											{
												OFFSET 3.01859 0.00000 0.00000
												CHANNELS 3 Zrotation Xrotation Yrotation
												End site
												{
													OFFSET 0.00000 0.00000 0.00000
												}
											}
										}
									}
									JOINT LeftHandMiddle1
									{
										OFFSET 14.26970 0.00000 -0.09147
										CHANNELS 3 Zrotation Xrotation Yrotation
										JOINT LeftHandMiddle2
										{
											OFFSET 6.17440 0.00000 0.00000
											CHANNELS 3 Zrotation Xrotation Yrotation
											JOINT LeftHandMiddle3
											{
												OFFSET 3.56744 0.00000 0.00000
												CHANNELS 3 Zrotation Xrotation Yrotation
												End site
												{
													OFFSET 0.00000 0.00000 0.00000
												}
											}
										}
									}
									JOINT LeftHandRing1
									{
										OFFSET 12.69180 0.00000 -3.06433
										CHANNELS 3 Zrotation Xrotation Yrotation
										JOINT LeftHandRing2
										{
											OFFSET 5.62556 0.00000 0.00000
											CHANNELS 3 Zrotation Xrotation Yrotation
											JOINT LeftHandRing3
											{
												OFFSET 3.56744 0.00000 0.00000
												CHANNELS 3 Zrotation Xrotation Yrotation
												End site
												{
													OFFSET 0.00000 0.00000 0.00000
												}
											}
										}
									}
									JOINT LeftHandPinky1
									{
										OFFSET 11.11390 0.00000 -6.03719
										CHANNELS 3 Zrotation Xrotation Yrotation
										JOINT LeftHandPinky2
										{
											OFFSET 4.52789 0.00000 0.00000
											CHANNELS 3 Zrotation Xrotation Yrotation
											JOINT LeftHandPinky3
											{
												OFFSET 2.46976 0.00000 0.00000
												CHANNELS 3 Zrotation Xrotation Yrotation
												End site
												{
													OFFSET 0.00000 0.00000 0.00000
												}
											}
										}
									}
								}
							}
						}
					}
					JOINT pCube4
					{
						OFFSET 0.00000 10.91090 1.10792
						CHANNELS 3 Zrotation Xrotation Yrotation
						End site
						{
							OFFSET 0.00000 0.00000 0.00000
						}
					}
				}
			}
		}
	}
	JOINT RightUpLeg
	{
		OFFSET -9.98441 0.00000 0.00000
		CHANNELS 3 Zrotation Xrotation Yrotation
		JOINT RightLeg
		{
			OFFSET 0.00000 -42.11790 0.00000
			CHANNELS 3 Zrotation Xrotation Yrotation
			JOINT RightFoot
			{
				OFFSET 0.00000 -45.00020 -0.00001
				CHANNELS 3 Zrotation Xrotation Yrotation
				JOINT RightForeFoot
				{
					OFFSET 0.00000 -3.74820 0.00000
					CHANNELS 3 Zrotation Xrotation Yrotation
					JOINT RightToeBase
					{
						OFFSET 0.00000 0.06325 14.43120
						CHANNELS 3 Zrotation Xrotation Yrotation
						End site
						{
							OFFSET 0.00000 0.00000 0.00000
						}
					}
				}
			}
		}
	}
	JOINT LeftUpLeg
	{
		OFFSET 9.98441 0.00000 0.00000
		CHANNELS 3 Zrotation Xrotation Yrotation
		JOINT LeftLeg
		{
			OFFSET 0.00000 -42.11800 0.00000
			CHANNELS 3 Zrotation Xrotation Yrotation
			JOINT LeftFoot
			{
				OFFSET 0.00000 -45.00070 0.00000
				CHANNELS 3 Zrotation Xrotation Yrotation
				JOINT LeftForeFoot
				{
					OFFSET 0.00000 -3.74824 0.00000
					CHANNELS 3 Zrotation Xrotation Yrotation
					JOINT LeftToeBase
					{
						OFFSET 0.00000 0.06325 14.43110
						CHANNELS 3 Zrotation Xrotation Yrotation
						End site
						{
							OFFSET 0.00000 0.00000 0.00000
						}
					}
				}
			}
		}
	}
}
MOTION
Frames: 4
Frame Time: 0.050000
0.03398644898119304 0.04785170932840821 -0.042825449448693494 -0.02491054715426209 -0.04902581876276135 -0.043897642467318865 3.649955065302047 4.654192103143284 -1.874801331414207 -0.8578288094035037 3.561565561463466 0.34889305894439543 -0.5570629560803833 -0.598293526776701 -0.407363875694985 -0.4309858276475895 -0.2360968153355121 -0.5622553824254878 -0.8009422188634884 10.968222822933598 0.4888738721995958 -0.0015187939833454928 -1.2781714251675085 1.2708920392458853 -0.04690894387084225 -17.7374562433324 0.13226523657760647 -7.241089203389524 2.978880521145413 -15.962936723975389 76.15190072214696 -0.8221867922823449 6.12207609645251 7.756806060291709 3.209875697549287 86.58980184312534 8.94956900850147 -0.25029149746037715 -2.340015267251181 4.559577847089669 -0.12082325527044717 -1.6103375980518555 0.01966172310665045 -0.019898481053606525 -56.25073426705374 -0.0028844980700557903 -0.005388099914873599 -56.25745634570728 -38.764107891986484 -0.028294979134283922 0.005752904388077993 0.03819825839229417 0.002146306540763359 0.024281265858917874 0.007648527005918851 -0.0050981800821315445 0.036837948066854996 -36.69754223660048 -0.010012574312237517 0.005003129562156326 -0.0023777650868208604 0.03034568013720704 -0.017965995749854923 0.012131537528266727 -0.043009111099496455 0.0047698730674271255 -19.787744126636973 -0.01664007870915869 -0.02364817823303387 -0.01278964379084232 0.022756385810790127 -0.004988607535155177 -0.03466555980247564 -0.02487775902750689 0.0258705490771011 24.039923469660398 0.005320834676694978 -0.015515466869576893 28.874030315523047 0.014743452904352423 0.0328136671613252 28.89108019016225 -0.014610086485734069 0.010896183138992639 9.559438505166263 2.4007291960771173 13.431915322955781 -68.61102160396406 18.98829972569787 -21.825480550067905 -6.152049165147521 -2.709243328373142 -88.22544399549778 -7.7983262346340485 -3.0604299617597386 0.05528437400162879 -0.46218671492993035 0.023637938164276194 -8.163471315588174 -0.02036142054146627 -0.025676993665245926 44.575176076177975 -0.044819871328677825 0.0330691810526239 44.5637447268997 12.468012327002278 0.005850086652771236 0.025135267748970087 -0.029014970444931096 -0.037258418451413186 -0.04891097886692272 -0.0249032165894851 -0.03575449715991243 0.007809335014182326 11.120861311422242 -0.012710706117909707 0.0055408318498451166 -0.02907790809997712 -0.0207307483409549 -0.0005156645063152745 0.02646836628677266 0.028534537825862263 0.0008838229414737481 4.748029358374839 0.04406969217942317 0.043283802704614405 -0.03318089731604669 0.032166184884916224 0.03796011850433457 -0.0012431265951504172 -0.04337715119512874 -0.0321701549661514 -5.622492276574813 -0.006099563156112888 0.010954493254644843 -6.71271011458283 0.028420578733590888 0.00435734814647939 -6.711769225001436 -0.009015623935749714 0.007707312854244756 0.028827131305009177 0.010856042851839817 -0.01013359745754776 8.055022264922899 3.5147916243043604 -19.219550202134098 0.030365812938848654 10.41497580881002 0.044056420725262294 -5.650361836946808 -15.673340358473322 3.2033618344208166 0.02166948644778608 -0.041643921202487624 0.0013834429307344582 0.024131676332082325 4.713055551072279 -0.006347185909466215 12.455437655466682 -8.241440131202737 6.844565143705298 0.006944323708607104 46.33916786919439 0.001420695221585174 -4.300696425267191 -14.699907774817092 -3.861446546291606 0.021640801717541965 -0.011773833429413483 0.02406943530004916 -0.0293882861081059 -10.753569784679586 0.03738821266664515 
0.012016816729720214 0.021824027224975694 -0.018648436151178362 -0.004226256360896709 -0.027322096269757817 0.013988679976030712 3.456798864762862 4.506235709879894 -1.8068170496436051 -0.807134842341755 3.5226241082620753 0.38306105479638214 -0.5827445166268937 -0.5776580852525076 -0.34919409554469283 -0.3727850045613821 -0.18232009350520198 -0.4736858376980243 -0.7577332985932744 11.191437952442666 0.30938876855858116 0.013393390809401495 -1.0817054534808075 0.8663592988670044 0.02344931592926563 -17.41728015522154 0.079774477177779 -7.194825215548679 2.883976556563411 -16.007817120362464 75.30476478387958 -0.25078541675776256 7.1466177801974355 8.300122182086879 3.5127311377275667 86.6096057894238 9.383211280177532 -0.20987144300011948 -2.369068987245428 4.523074905088364 -0.10576550048021795 -1.5469237098483832 0.023197830009676047 0.01353246159349372 -56.23062050353522 -0.049428565461891866 0.01585682482068903 -56.20841749722035 -38.809333869118156 0.006338522504887997 -0.024541995049641285 0.017337199915450657 0.0048173937594638795 0.04421077644247376 0.020189594648823528 0.030508764411047367 0.014431237860141244 -36.7342412327658 -0.010889209539794872 -0.02132422178723425 -0.001508889083234117 0.046251389827996134 0.027952933889299453 0.03137128560186195 -0.018992988484500952 0.03955037324375481 -19.760426660314124 0.049829376033191916 -0.026311788017922392 0.04278660958508408 -0.039011835805290086 -0.01082526879018667 -0.023259649080850153 0.04971289029436184 0.03399113237308536 24.043262311129475 -0.031140203771774067 -0.022680367718351416 28.844789838923433 0.008149441767454248 0.00585079203395241 28.84143426215733 -0.040205428605798614 -0.010931754300259004 9.179293420782862 2.361773511029811 13.391718685849535 -68.23048774199538 20.42197079499471 -21.767290583158648 -5.646709408611209 -1.9361565673103023 -88.60729862948448 -9.030835337877415 -3.1450523223111246 0.2866305366687212 -0.4344523661666629 0.03296986105917467 -8.096428067521748 0.044488597950760156 0.04283565885267255 44.52005117143539 0.022376361374494336 0.0467497094864422 44.602757977671594 12.450164927790183 0.041741901761738504 0.02043965931302882 0.003662561048790613 0.015732357964154123 -0.018737081766260627 0.04568821323421307 -0.01594492597999191 0.040368806743580156 11.1060686899863 0.0033918282934405535 -0.0006174418841076399 -0.002107887198526083 0.04096709919608464 0.015792188690433685 -0.029093952422553263 0.009668487990947156 -0.02040228136570888 4.797505090172096 -0.028030675932940535 0.0010939744410742593 -0.005336266895814448 -0.02531039112290026 0.026920825544752364 0.02574431909219741 0.007138669978425595 -0.04678822156907801 -5.64076315518654 -0.0013640327327731992 -0.034975339689143424 -6.727110091898803 -0.04268899390933243 -0.04047873079270621 -6.691520471125436 0.006229225005742978 -0.0006977181207293204 -0.022678768007413155 -0.00778991163259679 0.01627448215398404 8.05927447567567 3.480112556735603 -19.17619975194377 -0.0194110171746603 10.409911721338057 -0.0161838658684163 -5.60333533250701 -15.657109227317019 3.201777454133019 -0.015055287592709196 0.04049127788368503 0.02317419995893921 0.045540194801508525 4.701161897427804 0.017208488184012435 12.473860476958114 -8.191648426394263 6.8754449462538165 0.02777281576008307 46.39747045512277 0.041844683423709256 -4.304215815218227 -14.744298613116186 -3.873030694632819 -0.020227456136373192 -0.008066718278331948 0.04980778577686673 -0.0202417097231094 -10.716357824938763 0.008212414099025508 
0.02457597918417734 -0.04010463974523035 -0.03201670224410123 -0.04320622840702589 0.0009671669430454767 0.019939443823931428 3.457556419703689 4.481479424441081 -1.8604708217372534 -0.8220105839572095 3.577911638670622 0.41169680123447344 -0.6378986765233307 -0.5898400654243555 -0.335633947371822 -0.3869567210252 -0.1880393662609362 -0.5258969651331019 -0.6048579279843687 11.288692354004635 0.15016511025855586 0.0344173069955813 -0.9793773247383913 0.46616280952838124 0.060067985356681015 -17.084792893829 0.037397353410048295 -7.274926240040833 2.9023959376104953 -16.0471408163441 74.41052628165839 -0.4822678659106352 8.0619853105246 8.66981405377341 3.68207715385365 87.19343848775192 9.758675402399172 -0.24687654994054314 -2.470248261040703 4.501829227330112 -0.13534814580806734 -1.6340640124444894 0.03331744323237148 -0.0005393105104620227 -56.218895242335456 0.02047184521019557 -0.04269071453124219 -56.21626728100205 -38.79375551019795 -0.04086369488515285 -0.02809241352719057 -0.006543999702695052 0.028273809599808995 -0.02133404284294257 0.004712768710473678 0.013161041733822664 -0.032489256853943736 -36.73933861530393 0.02103455709358015 -0.02544123797955522 -0.018982267824639108 -0.04700809983934791 -0.011591958971275523 0.010255014389810286 -0.0018562266200138878 -0.018095435579934715 -19.802572305854866 0.0304246522192342 -0.02103797197084932 0.033436803372050405 0.012194023097508546 0.0034754469187237686 0.01397124753869971 0.005612082352859735 0.01812117546398118 24.058259275576866 0.006202262891317358 0.044321892091998195 28.828963189356838 -0.03534975855581381 -0.03349227162251661 28.84713362132714 -0.012947292220790423 0.04743050683360256 8.995806175656023 2.245855158953239 13.35966886760633 -67.94533184728385 21.41929713845041 -21.623367496123137 -5.168272202856056 -1.6793498380904321 -89.05327183548634 -10.171877534786082 -3.372373905052316 0.597551982652274 -0.46797579126102656 0.06337358829731508 -8.10300263050565 -0.037356145952318044 -0.02208717149439121 44.56714374209785 -0.014155603714273724 -0.013238132391697013 44.57542566810685 12.468713199641396 -0.04747034263637297 -0.04929419550768358 0.006225801832137402 -0.010442356565176033 0.0016320546359385663 0.03582370916718829 0.01972039839708375 0.00921893585037692 11.13473781435313 -0.026005691563496507 0.00824735611265385 -0.008071235870644393 -0.008865941869748825 0.041046942866249755 -0.011214884185227519 0.003954177735911829 0.000902748968158033 4.793180222669002 0.020314880554575886 -0.0015567349875050636 0.024163894904465206 -0.04764602048833248 -0.0030302811149583316 0.02079561445942485 0.02348771797610227 -0.047013166961292825 -5.580014553688906 0.04798318855383181 -0.043013862823443855 -6.770249470151811 -0.04634091697342938 0.03312496455282478 -6.724024438462564 0.02620180158200613 0.01002723673087145 -0.011217402551049522 -0.00370291147203586 0.03312399896927265 8.041164186792503 3.486018453380639 -19.18605247866174 -0.0006059440639094687 10.372943497036907 0.0033975511426881135 -5.587662026721113 -15.682913172157841 3.1877416378876253 -0.0344824815448094 -0.028393806093938323 0.003082456725024939 -0.009598766786561842 4.691193642552963 0.04493239899959492 12.449863998128423 -8.245236895954296 6.857332007024244 -0.048418232729597735 46.3557890695501 -0.04372121597857569 -4.297418472917836 -14.759823283655814 -3.813242152879018 0.02647188040091817 0.03941464403187468 -0.005922149851687034 0.03728897172597665 -10.724835469354938 0.030779764899682288 
0.03518013048351817 -0.04214646148130549 -0.02302899097986357 -0.02922439293021774 -0.023125904506466455 0.020064234275143217 3.2738034647656082 4.362036930408947 -1.8475090681873372 -0.8122960425438411 3.5382145085918806 0.38513724688364426 -0.6858802833068484 -0.6484905540695729 -0.3513275739404178 -0.31459814151021775 -0.14202603083957224 -0.5179040324230725 -0.5069484391715494 11.355240359445819 0.008088893209582003 -0.008792973682118968 -0.7663486937901595 0.08748488616113208 0.09943130107541563 -16.756074260119963 0.010709124552648287 -7.280858953696619 2.954702990828708 -16.013042250837707 73.34994781727984 -1.225542288129248 8.712756421808834 9.686402454058015 3.5991273468737806 87.81693209947244 10.333814182948903 -0.24186398623634295 -2.7304430988354564 4.515828871735817 -0.1616865953099605 -1.5458865141811056 -0.0047952433069927015 -0.007179518689242993 -56.27461908504817 0.04292584998498196 0.018497067887205128 -56.22598960058918 -38.81721184176698 -0.0419661283502924 -0.04738409093697597 0.04641626275683412 -0.02593078915924225 0.048932915571733494 0.016223044149097792 -0.030921384954982947 0.034676826664632655 -36.70558049106811 0.044941524117376216 0.0376462764219104 -0.01608072367292184 -0.010937151226199232 0.017594818973445808 0.02172509330223793 0.03969987247096423 0.043276424071410344 -19.737448694585677 0.04775941171691164 0.030785410672633323 0.0024080927740423945 0.004501905763753982 -0.04352666148512839 -0.011795807786481646 0.016225612974352398 -0.02625666316193195 24.099356569715628 0.01564844160096173 -0.0496903678326059 28.861913406983003 -0.04138620635469434 0.01061989632026438 28.816349877674764 0.023334320185093124 -0.016620062579860782 8.791333905427878 2.2365981979454217 13.379515183769312 -67.46639704982383 21.94473339617585 -20.93528617853291 -6.003129692942176 -1.382561196946925 -89.45680813144536 -11.145871396586793 -3.6602148096032163 0.8148739241972072 -0.49442025951070695 0.08079766378882088 -8.143040883534326 -0.008363625475402781 -0.015610895872334404 44.5600150114297 -0.014734805005771973 -0.04755583954903773 44.55725406754015 12.430704487646704 -0.006634494449118883 -0.049181451647031915 -0.042004493286765206 0.009888777458412977 -0.03414879515629126 -0.04835651979202698 -0.03877033724850618 -0.0016661897133213586 11.11939129821668 0.02156884005893933 0.020420705011396516 0.016330119072174458 0.01963658319012004 0.01223256502092969 -0.029741041779617634 0.023765265743824242 0.013890330676022944 4.769625300346421 -0.03938457680659295 -0.0031107223507534218 0.029928825667022006 -0.024368828252290538 0.04931917407611152 -0.02528856870867335 0.03722063087646164 -0.010608197765655856 -5.576319816029419 -0.010356524083060582 -0.03562051659927225 -6.683222857209537 -0.045842391790496484 -0.009492713715228926 -6.715033570162913 0.012786147471271254 0.009204216900005724 0.012995240281784632 0.003950556278639923 -0.018647368930622694 8.034181010788243 3.4838703649241056 -19.208998383813192 -0.041167353633560874 10.43455805967052 0.022493950060806657 -5.601756798162806 -15.708749123537553 3.2174711802841163 -0.0364236889496786 -0.02295745504622151 0.03781230386666374 -0.011584168148208767 4.648467421417849 -0.0459545660214228 12.438153363425842 -8.263372509396884 6.89193480731575 0.04207274014248695 46.41667506920079 -0.014760553666627624 -4.311793936154243 -14.784886223203365 -3.8806673817052677 0.020950396327677978 0.020810686605321663 -0.0179582062326906 0.010407037534527071 -10.784608680955884 0.04771372385166952 
